name rise30.3154peak39.0474fall46.5389.mot
datacolumns 19
datarows 32
range 11.56329500000000 11.61496100000000
endheader
time	ground_force1_vx	ground_force1_vy	ground_force1_vz	ground_force1_px	ground_force1_py	ground_force1_pz	ground_force2_vx	ground_force2_vy	ground_force2_vz	ground_force2_px	ground_force2_py	ground_force2_pz	ground_torque1_x	ground_torque1_y	ground_torque1_z	ground_torque2_x	ground_torque2_y	ground_torque2_z	
11.56329500000000	-8.84386100000000	40.54334900000000	-8.98747900000000	0.31279800000000	0.00000000000000	0.07787600000000	-44.96382100000000	760.90132500000004	-49.27484100000000	0.17047400000000	0.00000000000000	-0.09431300000000	0.00000000000000	-6.01148300000000	0.00000000000000	0.00000000000000	-23.35427100000000	0.00000000000000	
11.56496100000000	-9.75421600000000	47.73898400000000	-10.05945700000000	0.31896300000000	0.00000000000000	0.07895300000000	-45.74448600000000	758.49245099999996	-49.14454200000000	0.16937400000000	0.00000000000000	-0.09429500000000	0.00000000000000	-6.79751500000000	0.00000000000000	0.00000000000000	-23.33755700000000	0.00000000000000	
11.56662200000000	-10.51252500000000	55.08079300000000	-11.01633400000000	0.32450900000000	0.00000000000000	0.07991500000000	-46.53746600000000	756.00532099999998	-48.99917400000000	0.16827000000000	0.00000000000000	-0.09427600000000	0.00000000000000	-7.51669700000000	0.00000000000000	0.00000000000000	-23.32071400000000	0.00000000000000	
11.56828800000000	-11.09499800000000	62.47784200000000	-11.83413600000000	0.32954800000000	0.00000000000000	0.08078000000000	-47.34207600000000	753.43721100000005	-48.83813500000000	0.16716500000000	0.00000000000000	-0.09425500000000	0.00000000000000	-8.15116500000000	0.00000000000000	0.00000000000000	-23.30358800000000	0.00000000000000	
11.56995800000000	-11.48723800000000	69.85960799999999	-12.49726700000000	0.33416600000000	0.00000000000000	0.08156500000000	-48.15756200000000	750.78527399999996	-48.66082400000000	0.16605900000000	0.00000000000000	-0.09423100000000	0.00000000000000	-8.68867100000000	0.00000000000000	0.00000000000000	-23.28601400000000	0.00000000000000	
11.57162200000000	-11.68414600000000	77.17834300000000	-12.99856200000000	0.33843100000000	0.00000000000000	0.08228100000000	-48.98310100000000	748.04654900000003	-48.46664700000000	0.16495400000000	0.00000000000000	-0.09420400000000	0.00000000000000	-9.12274400000000	0.00000000000000	0.00000000000000	-23.26781700000000	0.00000000000000	
11.57329200000000	-11.68907700000000	84.40916000000000	-13.33865300000000	0.34239800000000	0.00000000000000	0.08293900000000	-49.81779900000000	745.21797100000003	-48.25501500000000	0.16385200000000	0.00000000000000	-0.09417500000000	0.00000000000000	-9.45235700000000	0.00000000000000	0.00000000000000	-23.24881600000000	0.00000000000000	
11.57496200000000	-11.51246300000000	91.54822600000000	-13.52480200000000	0.34611000000000	0.00000000000000	0.08354500000000	-50.66069500000000	742.29638000000000	-48.02534800000000	0.16275200000000	0.00000000000000	-0.09414300000000	0.00000000000000	-9.68120600000000	0.00000000000000	0.00000000000000	-23.22881900000000	0.00000000000000	
11.57662700000000	-11.17007800000000	98.60952700000000	-13.56938900000000	0.34960400000000	0.00000000000000	0.08410700000000	-51.51075600000000	739.27853100000004	-47.77708300000000	0.16165700000000	0.00000000000000	-0.09410800000000	0.00000000000000	-9.81672300000000	0.00000000000000	0.00000000000000	-23.20762600000000	0.00000000000000	
11.57829300000000	-10.68118200000000	105.62072600000000	-13.48825100000000	0.35290800000000	0.00000000000000	0.08462900000000	-52.36688300000000	736.16110400000002	-47.50967000000000	0.16056800000000	0.00000000000000	-0.09407000000000	0.00000000000000	-9.86895800000000	0.00000000000000	0.00000000000000	-23.18502900000000	0.00000000000000	
11.57996100000000	-10.06668700000000	112.61862300000000	-13.29902000000000	0.35604700000000	0.00000000000000	0.08511700000000	-53.22790900000000	732.94071799999995	-47.22258200000000	0.15948600000000	0.00000000000000	-0.09402800000000	0.00000000000000	-9.84942900000000	0.00000000000000	0.00000000000000	-23.16081200000000	0.00000000000000	
11.58162900000000	-9.34752300000000	119.64464400000000	-13.01961200000000	0.35904000000000	0.00000000000000	0.08557300000000	-54.09260100000000	729.61393999999996	-46.91531100000000	0.15841400000000	0.00000000000000	-0.09398300000000	0.00000000000000	-9.77006300000000	0.00000000000000	0.00000000000000	-23.13475500000000	0.00000000000000	
11.58329600000000	-8.54326500000000	126.74072600000000	-12.66694500000000	0.36190600000000	0.00000000000000	0.08600200000000	-54.95965800000000	726.17730200000005	-46.58737800000000	0.15735100000000	0.00000000000000	-0.09393400000000	0.00000000000000	-9.64227800000000	0.00000000000000	0.00000000000000	-23.10662500000000	0.00000000000000	
11.58495800000000	-7.67111800000000	133.94584200000000	-12.25596100000000	0.36465600000000	0.00000000000000	0.08640500000000	-55.82771700000000	722.62730799999997	-46.23833400000000	0.15630000000000	0.00000000000000	-0.09388200000000	0.00000000000000	-9.47626300000000	0.00000000000000	0.00000000000000	-23.07618800000000	0.00000000000000	
11.58662600000000	-6.74524500000000	141.29332900000000	-11.79896400000000	0.36730400000000	0.00000000000000	0.08678600000000	-56.69535300000000	718.96045400000003	-45.86776300000000	0.15526200000000	0.00000000000000	-0.09382600000000	0.00000000000000	-9.28047200000000	0.00000000000000	0.00000000000000	-23.04320100000000	0.00000000000000	
11.58829600000000	-5.77645900000000	148.80908700000001	-11.30528200000000	0.36986000000000	0.00000000000000	0.08714600000000	-57.56107700000000	715.17323599999997	-45.47528300000000	0.15423800000000	0.00000000000000	-0.09376500000000	0.00000000000000	-9.06134900000000	0.00000000000000	0.00000000000000	-23.00741700000000	0.00000000000000	
11.58995500000000	-4.77220400000000	156.51060899999999	-10.78120200000000	0.37233200000000	0.00000000000000	0.08748700000000	-58.42334500000000	711.26217099999997	-45.06055600000000	0.15323100000000	0.00000000000000	-0.09370000000000	0.00000000000000	-8.82324000000000	0.00000000000000	0.00000000000000	-22.96858000000000	0.00000000000000	
11.59162900000000	-3.73681300000000	164.40679399999999	-10.23015700000000	0.37472600000000	0.00000000000000	0.08781000000000	-59.28055500000000	707.22380699999997	-44.62328400000000	0.15224100000000	0.00000000000000	-0.09363100000000	0.00000000000000	-8.56848900000000	0.00000000000000	0.00000000000000	-22.92643400000000	0.00000000000000	
11.59329200000000	-2.67193200000000	172.49838500000001	-9.65308700000000	0.37704900000000	0.00000000000000	0.08811800000000	-60.13105300000000	703.05474000000004	-44.16321600000000	0.15126900000000	0.00000000000000	-0.09355800000000	0.00000000000000	-8.29766400000000	0.00000000000000	0.00000000000000	-22.88071600000000	0.00000000000000	
11.59495700000000	-1.57708400000000	180.77890400000001	-9.04891700000000	0.37930700000000	0.00000000000000	0.08841000000000	-60.97313100000000	698.75163399999997	-43.68014900000000	0.15031700000000	0.00000000000000	-0.09348000000000	0.00000000000000	-8.00987800000000	0.00000000000000	0.00000000000000	-22.83115800000000	0.00000000000000	
11.59663000000000	-0.45028100000000	189.23591500000001	-8.41510900000000	0.38150300000000	0.00000000000000	0.08868900000000	-61.80503700000000	694.31123100000002	-43.17393400000000	0.14938700000000	0.00000000000000	-0.09339700000000	0.00000000000000	-7.70315900000000	0.00000000000000	0.00000000000000	-22.77749100000000	0.00000000000000	
11.59829100000000	0.71136200000000	197.85246500000000	-7.74821700000000	0.38364100000000	0.00000000000000	0.08895400000000	-62.62497400000000	689.73037599999998	-42.64447600000000	0.14848000000000	0.00000000000000	-0.09330900000000	0.00000000000000	-7.37484100000000	0.00000000000000	0.00000000000000	-22.71944200000000	0.00000000000000	
11.59996100000000	1.91105200000000	206.60855500000000	-7.04440900000000	0.38572300000000	0.00000000000000	0.08920800000000	-63.43110300000000	685.00602800000001	-42.09173400000000	0.14759600000000	0.00000000000000	-0.09321600000000	0.00000000000000	-7.02193100000000	0.00000000000000	0.00000000000000	-22.65673400000000	0.00000000000000	
11.60162200000000	3.15183100000000	215.48254299999999	-6.29992800000000	0.38775300000000	0.00000000000000	0.08945000000000	-64.22155200000000	680.13528499999995	-41.51573000000000	0.14673800000000	0.00000000000000	-0.09311800000000	0.00000000000000	-6.64144700000000	0.00000000000000	0.00000000000000	-22.58909200000000	0.00000000000000	
11.60329000000000	4.43618000000000	224.45237200000000	-5.51146700000000	0.38973200000000	0.00000000000000	0.08968100000000	-64.99441299999999	675.11539700000003	-40.91654300000000	0.14590700000000	0.00000000000000	-0.09301500000000	0.00000000000000	-6.23068700000000	0.00000000000000	0.00000000000000	-22.51623800000000	0.00000000000000	
11.60496200000000	5.76574000000000	233.49659000000000	-4.67643900000000	0.39166200000000	0.00000000000000	0.08990300000000	-65.74775300000000	669.94378900000004	-40.29431600000000	0.14510300000000	0.00000000000000	-0.09290600000000	0.00000000000000	-5.78743600000000	0.00000000000000	0.00000000000000	-22.43789100000000	0.00000000000000	
11.60662300000000	7.14114200000000	242.59510299999999	-3.79315600000000	0.39354400000000	0.00000000000000	0.09011500000000	-66.47961599999999	664.61807899999997	-39.64925700000000	0.14432700000000	0.00000000000000	-0.09279200000000	0.00000000000000	-5.31010500000000	0.00000000000000	0.00000000000000	-22.35377500000000	0.00000000000000	
11.60829000000000	8.56193600000000	251.72969200000000	-2.86091200000000	0.39537800000000	0.00000000000000	0.09031700000000	-67.18802700000001	659.13609799999995	-38.98163600000000	0.14358200000000	0.00000000000000	-0.09267200000000	0.00000000000000	-4.79780000000000	0.00000000000000	0.00000000000000	-22.26361200000000	0.00000000000000	
11.60995700000000	10.02660900000000	260.88426800000002	-1.87998400000000	0.39716600000000	0.00000000000000	0.09051100000000	-67.87099900000000	653.49590400000000	-38.29179000000000	0.14286700000000	0.00000000000000	-0.09254700000000	0.00000000000000	-4.25033700000000	0.00000000000000	0.00000000000000	-22.16712700000000	0.00000000000000	
11.61162500000000	11.53267400000000	270.04493600000001	-0.85157000000000	0.39890800000000	0.00000000000000	0.09069700000000	-68.52653599999999	647.69580499999995	-37.58012200000000	0.14218500000000	0.00000000000000	-0.09241500000000	0.00000000000000	-3.66820500000000	0.00000000000000	0.00000000000000	-22.06404600000000	0.00000000000000	
11.61329300000000	13.07680600000000	279.19987800000001	0.22232400000000	0.40060400000000	0.00000000000000	0.09087500000000	-69.15264000000001	641.73437000000001	-36.84709900000000	0.14153500000000	0.00000000000000	-0.09227800000000	0.00000000000000	-3.05249100000000	0.00000000000000	0.00000000000000	-21.95410100000000	0.00000000000000	
11.61496100000000	14.65501200000000	288.33911699999999	1.33902800000000	0.40225400000000	0.00000000000000	0.09104600000000	-69.74731600000000	635.61044700000002	-36.09325900000000	0.14091800000000	0.00000000000000	-0.09213500000000	0.00000000000000	-2.40478900000000	0.00000000000000	0.00000000000000	-21.83702600000000	0.00000000000000	
